<svg width="37" height="37" viewBox="0 0 37 37" fill="none" xmlns="http://www.w3.org/2000/svg">
<circle cx="18.5" cy="18.5" r="18.5" fill="#78D454"/>
<path fill-rule="evenodd" clip-rule="evenodd" d="M6.81644 6.87081C6.32709 6.69875 5.79091 6.95599 5.61886 7.44534C5.4468 7.93471 5.70404 8.47089 6.1934 8.64294L6.52052 8.75794C7.35656 9.05188 7.90602 9.24668 8.31032 9.44506C8.69006 9.63138 8.85746 9.78219 8.96773 9.94357C9.08077 10.109 9.16805 10.3362 9.21731 10.7912C9.26884 11.2673 9.27012 11.8875 9.27012 12.8141V16.2225C9.27012 18.0415 9.28719 19.3532 9.45883 20.3552C9.64207 21.4251 10.0079 22.191 10.692 22.9126C11.4357 23.6969 12.3784 24.0384 13.5008 24.1976C14.5755 24.35 15.9404 24.35 17.6257 24.35H24.3953C25.3241 24.35 26.1056 24.35 26.738 24.2726C27.4089 24.1906 28.0207 24.011 28.5548 23.5758C29.089 23.1405 29.3883 22.5775 29.6042 21.937C29.8075 21.3332 29.9653 20.5679 30.1528 19.6582L30.7901 16.5658L30.7913 16.56L30.8044 16.4946C31.0106 15.4616 31.1841 14.5926 31.2273 13.8937C31.2725 13.1596 31.189 12.4357 30.7108 11.8141C30.4165 11.4316 30.0029 11.2151 29.6266 11.0828C29.2427 10.948 28.8087 10.87 28.3708 10.821C27.5103 10.7248 26.4651 10.7248 25.44 10.7248H11.0983C11.0941 10.6788 11.0897 10.6336 11.0849 10.5891C11.0176 9.96743 10.8718 9.40049 10.5187 8.88373C10.1628 8.36295 9.68959 8.02941 9.13778 7.75866C8.62172 7.50544 7.96597 7.27492 7.19389 7.0035L6.81644 6.87081ZM11.1486 12.6033H25.4008C26.4733 12.6033 27.4171 12.6046 28.162 12.6878C28.5322 12.7292 28.8092 12.7867 29.0038 12.8551C29.1628 12.911 29.2167 12.9566 29.2245 12.9632C29.2243 12.9631 29.2248 12.9635 29.2245 12.9632C29.3013 13.0652 29.3849 13.2502 29.3523 13.7779C29.318 14.3334 29.1721 15.0751 28.9497 16.1896L28.9492 16.1924L28.3245 19.2232C28.1224 20.2035 27.9864 20.8552 27.824 21.3371C27.6698 21.7947 27.5251 21.9918 27.3682 22.1196C27.2114 22.2474 26.9891 22.3494 26.5098 22.408C26.0049 22.4699 25.3393 22.4715 24.3383 22.4715H17.6974C15.9232 22.4715 14.6921 22.4693 13.7645 22.3378C12.8693 22.2108 12.3964 21.9801 12.0551 21.6201C11.6542 21.1973 11.4379 20.7832 11.3103 20.0382C11.1711 19.2253 11.1486 18.0872 11.1486 16.2225V12.6033Z" fill="white"/>
<path fill-rule="evenodd" clip-rule="evenodd" d="M13.3925 31.2377C11.8364 31.2377 10.5748 29.9761 10.5748 28.42C10.5748 26.8637 11.8364 25.6023 13.3925 25.6023C14.9487 25.6023 16.2102 26.8637 16.2102 28.42C16.2102 29.9761 14.9487 31.2377 13.3925 31.2377ZM12.4533 28.42C12.4533 28.9387 12.8738 29.3592 13.3925 29.3592C13.9113 29.3592 14.3318 28.9387 14.3318 28.42C14.3318 27.9013 13.9113 27.4808 13.3925 27.4808C12.8738 27.4808 12.4533 27.9013 12.4533 28.42Z" fill="white"/>
<path fill-rule="evenodd" clip-rule="evenodd" d="M24.6634 31.2377C23.1073 31.2377 21.8457 29.9761 21.8457 28.42C21.8457 26.8637 23.1073 25.6023 24.6634 25.6023C26.2195 25.6023 27.4811 26.8637 27.4811 28.42C27.4811 29.9761 26.2195 31.2377 24.6634 31.2377ZM23.7242 28.42C23.7242 28.9387 24.1447 29.3592 24.6634 29.3592C25.1821 29.3592 25.6026 28.9387 25.6026 28.42C25.6026 27.9013 25.1821 27.4808 24.6634 27.4808C24.1447 27.4808 23.7242 27.9013 23.7242 28.42Z" fill="white"/>
</svg>
