<svg width="24" height="24" viewBox="0 0 24 24" fill="none" xmlns="http://www.w3.org/2000/svg">
<g clip-path="url(#clip0_16_738)">
<path d="M19 5H5C3.89543 5 3 5.89543 3 7V18C3 19.1046 3.89543 20 5 20H19C20.1046 20 21 19.1046 21 18V7C21 5.89543 20.1046 5 19 5Z" stroke="#78D454" stroke-width="2"/>
<path d="M3 9C3 7.11438 3 6.17157 3.58579 5.58579C4.17157 5 5.11438 5 7 5H17C18.8856 5 19.8284 5 20.4142 5.58579C21 6.17157 21 7.11438 21 9H3Z" fill="#78D454"/>
<path d="M7 2V5" stroke="#78D454" stroke-width="2" stroke-linecap="round"/>
<path d="M17 2V5" stroke="#78D454" stroke-width="2" stroke-linecap="round"/>
</g>
<defs>
<clipPath id="clip0_16_738">
<rect width="24" height="24" fill="white"/>
</clipPath>
</defs>
</svg>
