<svg width="42" height="41" viewBox="0 0 42 41" fill="none" xmlns="http://www.w3.org/2000/svg">
<g clip-path="url(#clip0_14_254)">
<path d="M20.9942 0C9.76432 0 0.662842 9.10148 0.662842 20.3314C0.662842 31.5613 9.76432 40.6628 20.9942 40.6628C32.2242 40.6628 41.3257 31.5613 41.3257 20.3314C41.3257 9.10148 32.2242 0 20.9942 0ZM25.4815 16.8846L25.2511 19.9264H22.1299V30.4892H18.1907V19.9264H16.0861V16.8846H18.1907V14.8435C18.1907 13.9461 18.2146 12.5562 18.8658 11.6906C19.5568 10.7772 20.5018 10.1578 22.1299 10.1578C24.7826 10.1578 25.8944 10.539 25.8944 10.539L25.3703 13.6522C25.3703 13.6522 24.4966 13.3981 23.6786 13.3981C22.8606 13.3981 22.1299 13.6919 22.1299 14.51V16.8846H25.4815Z" fill="#78D454"/>
</g>
<defs>
<clipPath id="clip0_14_254">
<rect width="40.6628" height="40.6628" fill="white" transform="translate(0.662842)"/>
</clipPath>
</defs>
</svg>
