<svg width="41" height="41" viewBox="0 0 41 41" fill="none" xmlns="http://www.w3.org/2000/svg">
<path fill-rule="evenodd" clip-rule="evenodd" d="M20.6462 40.6519C31.869 40.6519 40.9668 31.554 40.9668 20.3313C40.9668 9.10857 31.869 0.0107422 20.6462 0.0107422C9.42351 0.0107422 0.325684 9.10857 0.325684 20.3313C0.325684 31.554 9.42351 40.6519 20.6462 40.6519ZM22.0078 11.8973C28.8103 11.5885 29.5506 14.7656 29.5464 20.7558C29.5972 26.1919 28.5227 28.7175 22.672 29.0263C17.9085 29.7116 12.8193 29.8935 12.4513 23.7552L12.447 23.7115C12.0706 19.9102 11.5319 14.4702 15.5902 12.4853C16.9379 12.0277 18.4327 12.0061 19.8768 11.9852C20.6088 11.9746 21.3277 11.9642 22.0078 11.8973ZM20.6625 25.6081C27.6723 25.6843 28.1334 14.6936 20.6964 15.197C14.6342 15.7893 14.0123 25.4051 20.6625 25.6081ZM26.0944 16.3985C26.9594 16.5117 27.3532 15.9547 27.3487 15.3504C27.3525 15.9546 26.9586 16.5114 26.0944 16.3984C25.4303 16.3797 25.0227 15.9193 24.9128 15.4079C25.0226 15.9194 25.4303 16.3798 26.0944 16.3985ZM20.688 23.8904C15.9626 23.6959 17.2867 16.6014 21.5975 16.8256C25.8068 18.0905 25.1257 23.7847 20.688 23.8904Z" fill="#78D454"/>
</svg>
