<svg width="41" height="41" viewBox="0 0 41 41" fill="none" xmlns="http://www.w3.org/2000/svg">
<g clip-path="url(#clip0_14_251)">
<path d="M20.3314 0C9.10267 0 0 9.10267 0 20.3314C0 31.5601 9.10267 40.6628 20.3314 40.6628C31.5601 40.6628 40.6628 31.5601 40.6628 20.3314C40.6628 9.10267 31.5601 0 20.3314 0ZM20.7226 17.2651C20.7293 17.2654 20.7356 17.2668 20.7425 17.2671C20.673 16.9691 20.637 16.6584 20.637 16.3393C20.637 14.0912 22.4598 12.2684 24.7082 12.2684C25.879 12.2684 26.937 12.7628 27.6796 13.5541C28.442 13.404 29.1635 13.1431 29.8342 12.7977C29.9756 12.7291 30.1174 12.6609 30.2567 12.5854C30.0153 13.3267 29.5623 13.9682 28.9748 14.4543C28.8156 14.5794 28.6522 14.7003 28.4724 14.7993C28.4846 14.7978 28.4965 14.7951 28.5087 14.7936C28.4968 14.801 28.4868 14.8111 28.4747 14.8184C29.142 14.7386 29.7819 14.5761 30.3896 14.3465C30.5258 14.2995 30.6618 14.2519 30.7968 14.1994C30.2534 15.0062 29.5695 15.7159 28.7815 16.2849C28.7893 16.4594 28.7932 16.6348 28.7932 16.8115C28.7932 22.1911 24.6985 28.3942 17.2104 28.3942C14.9114 28.3942 12.7715 27.7204 10.9699 26.5654C11.2884 26.6029 11.6126 26.6221 11.9411 26.6221C13.4609 26.6221 14.8808 26.2037 16.1014 25.4833C16.4088 25.3062 16.7096 25.1148 16.9967 24.8983C16.9889 24.8982 16.9818 24.8963 16.974 24.8961C16.9815 24.8903 16.9896 24.8853 16.997 24.8795C15.4545 24.8511 14.1233 23.9631 13.4569 22.6759C13.3577 22.4782 13.2727 22.2711 13.2056 22.0539C13.4507 22.1 13.7017 22.1253 13.9601 22.1253C14.2294 22.1253 14.4895 22.0906 14.7441 22.0408C14.8391 22.0275 14.9352 22.0164 15.0289 22.001C15.0165 21.9984 15.0056 21.993 14.9932 21.9904C15.0061 21.9871 15.0199 21.986 15.0326 21.9825C13.1703 21.6085 11.767 19.963 11.767 17.9907C11.767 17.9751 11.7671 17.9599 11.7673 17.9446L11.7692 17.9402C12.2077 18.1836 12.6978 18.3446 13.217 18.412C13.3448 18.4334 13.4728 18.453 13.6008 18.4642C13.592 18.4583 13.5845 18.4511 13.5758 18.4453C13.5879 18.4457 13.5994 18.4481 13.6113 18.4485C12.519 17.7186 11.8003 16.4723 11.8003 15.06C11.8003 14.4134 11.9582 13.8062 12.2266 13.2633C12.2694 13.1817 12.3074 13.0983 12.3566 13.0192C14.1603 15.2288 16.7656 16.7496 19.7268 17.1609C20.0572 17.2089 20.3885 17.2518 20.7237 17.2711C20.7233 17.2692 20.7231 17.2671 20.7226 17.2651Z" fill="#78D454"/>
</g>
<defs>
<clipPath id="clip0_14_251">
<rect width="40.6628" height="40.6628" fill="white"/>
</clipPath>
</defs>
</svg>
