<svg width="37" height="37" viewBox="0 0 37 37" fill="none" xmlns="http://www.w3.org/2000/svg">
<circle cx="18.5" cy="18.5" r="18.5" fill="#78D454"/>
<path d="M19.0277 16.5231C21.7942 16.5231 24.0369 14.2804 24.0369 11.5139C24.0369 8.74735 21.7942 6.50464 19.0277 6.50464C16.2611 6.50464 14.0184 8.74735 14.0184 11.5139C14.0184 14.2804 16.2611 16.5231 19.0277 16.5231Z" stroke="white" stroke-width="1.87847"/>
<path d="M22.7847 29.8163C21.646 30.1253 20.3722 30.2983 19.0278 30.2983C14.1864 30.2983 10.2616 28.0555 10.2616 25.289C10.2616 22.5225 14.1864 20.2798 19.0278 20.2798C23.8692 20.2798 27.7939 22.5225 27.7939 25.289C27.7939 25.7214 27.698 26.1411 27.5178 26.5413" stroke="white" stroke-width="1.87847" stroke-linecap="round"/>
</svg>
